<mxfile host="app.diagrams.net" modified="2023-03-27T10:56:21.258Z" agent="Mozilla/5.0 (Windows NT 10.0; Win64; x64) AppleWebKit/537.36 (KHTML, like Gecko) Chrome/111.0.0.0 Safari/537.36" etag="EXqZQ48VTxxZvX5ezKpH" version="21.1.1" type="github">
  <diagram name="Page-1" id="iEeeSzX-YQJRWRYtdSwe">
    <mxGraphModel dx="2736" dy="878" grid="1" gridSize="10" guides="1" tooltips="1" connect="1" arrows="1" fold="1" page="1" pageScale="1" pageWidth="827" pageHeight="1169" math="0" shadow="0">
      <root>
        <mxCell id="0" />
        <mxCell id="1" parent="0" />
        <mxCell id="w2PyvuTRh5ASNS8WfvtD-1" value="" style="swimlane;startSize=0;" vertex="1" parent="1">
          <mxGeometry x="90" y="111" width="590" height="1028" as="geometry" />
        </mxCell>
        <mxCell id="w2PyvuTRh5ASNS8WfvtD-3" value="&lt;h1&gt;Visitor Management System&lt;/h1&gt;" style="text;html=1;strokeColor=none;fillColor=none;spacing=5;spacingTop=-20;whiteSpace=wrap;overflow=hidden;rounded=0;align=center;" vertex="1" parent="w2PyvuTRh5ASNS8WfvtD-1">
          <mxGeometry width="590" height="120" as="geometry" />
        </mxCell>
        <mxCell id="w2PyvuTRh5ASNS8WfvtD-14" value="&#xa;&lt;span style=&quot;color: rgb(0, 0, 0); font-family: Helvetica; font-size: 20px; font-style: normal; font-variant-ligatures: normal; font-variant-caps: normal; font-weight: 400; letter-spacing: normal; orphans: 2; text-align: center; text-indent: 0px; text-transform: none; widows: 2; word-spacing: 0px; -webkit-text-stroke-width: 0px; background-color: rgb(251, 251, 251); text-decoration-thickness: initial; text-decoration-style: initial; text-decoration-color: initial; float: none; display: inline !important;&quot;&gt;Check Authorization&lt;/span&gt;&#xa;&#xa;" style="ellipse;whiteSpace=wrap;html=1;" vertex="1" parent="w2PyvuTRh5ASNS8WfvtD-1">
          <mxGeometry x="10" y="59" width="190" height="121" as="geometry" />
        </mxCell>
        <mxCell id="w2PyvuTRh5ASNS8WfvtD-15" value="Verify" style="ellipse;whiteSpace=wrap;html=1;" vertex="1" parent="w2PyvuTRh5ASNS8WfvtD-1">
          <mxGeometry x="340" y="149" width="120" height="80" as="geometry" />
        </mxCell>
        <mxCell id="w2PyvuTRh5ASNS8WfvtD-39" value="&amp;lt;&amp;lt;inlcude&amp;gt;&amp;gt;" style="edgeStyle=orthogonalEdgeStyle;rounded=0;orthogonalLoop=1;jettySize=auto;html=1;dashed=1;jumpStyle=none;labelBorderColor=none;labelPosition=center;verticalLabelPosition=top;align=center;verticalAlign=bottom;" edge="1" parent="w2PyvuTRh5ASNS8WfvtD-1" source="w2PyvuTRh5ASNS8WfvtD-16" target="w2PyvuTRh5ASNS8WfvtD-35">
          <mxGeometry relative="1" as="geometry" />
        </mxCell>
        <mxCell id="w2PyvuTRh5ASNS8WfvtD-16" value="Logging" style="ellipse;whiteSpace=wrap;html=1;" vertex="1" parent="w2PyvuTRh5ASNS8WfvtD-1">
          <mxGeometry x="280" y="59" width="120" height="80" as="geometry" />
        </mxCell>
        <mxCell id="w2PyvuTRh5ASNS8WfvtD-17" value="&amp;lt;&amp;lt;include&amp;gt;&amp;gt;" style="html=1;verticalAlign=bottom;endArrow=open;dashed=1;endSize=8;edgeStyle=elbowEdgeStyle;elbow=vertical;curved=0;rounded=0;strokeWidth=1;entryX=0;entryY=0.5;entryDx=0;entryDy=0;" edge="1" parent="w2PyvuTRh5ASNS8WfvtD-1" target="w2PyvuTRh5ASNS8WfvtD-16">
          <mxGeometry relative="1" as="geometry">
            <mxPoint x="200" y="110" as="sourcePoint" />
            <mxPoint x="250" y="119" as="targetPoint" />
            <Array as="points">
              <mxPoint x="220" y="99" />
              <mxPoint x="280" y="109" />
            </Array>
          </mxGeometry>
        </mxCell>
        <mxCell id="w2PyvuTRh5ASNS8WfvtD-31" value="&amp;lt;&amp;lt;include&amp;gt;&amp;gt;" style="html=1;verticalAlign=bottom;endArrow=open;dashed=1;endSize=8;edgeStyle=elbowEdgeStyle;elbow=vertical;curved=0;rounded=0;entryX=0;entryY=0.5;entryDx=0;entryDy=0;" edge="1" parent="w2PyvuTRh5ASNS8WfvtD-1" target="w2PyvuTRh5ASNS8WfvtD-15">
          <mxGeometry relative="1" as="geometry">
            <mxPoint x="200" y="129" as="sourcePoint" />
            <mxPoint x="280" y="129" as="targetPoint" />
            <Array as="points">
              <mxPoint x="270" y="149" />
            </Array>
          </mxGeometry>
        </mxCell>
        <mxCell id="w2PyvuTRh5ASNS8WfvtD-35" value="Wifi Transmitter" style="ellipse;whiteSpace=wrap;html=1;" vertex="1" parent="w2PyvuTRh5ASNS8WfvtD-1">
          <mxGeometry x="440" y="59" width="120" height="80" as="geometry" />
        </mxCell>
        <mxCell id="w2PyvuTRh5ASNS8WfvtD-45" value="Display disallowed missage" style="ellipse;whiteSpace=wrap;html=1;" vertex="1" parent="w2PyvuTRh5ASNS8WfvtD-1">
          <mxGeometry x="280" y="265" width="120" height="80" as="geometry" />
        </mxCell>
        <mxCell id="w2PyvuTRh5ASNS8WfvtD-46" value="Authorize Access&amp;nbsp;" style="ellipse;whiteSpace=wrap;html=1;" vertex="1" parent="w2PyvuTRh5ASNS8WfvtD-1">
          <mxGeometry x="410" y="265" width="120" height="80" as="geometry" />
        </mxCell>
        <mxCell id="w2PyvuTRh5ASNS8WfvtD-47" value="" style="endArrow=classic;html=1;rounded=0;exitX=0.5;exitY=0;exitDx=0;exitDy=0;entryX=0.5;entryY=1;entryDx=0;entryDy=0;" edge="1" parent="w2PyvuTRh5ASNS8WfvtD-1" source="w2PyvuTRh5ASNS8WfvtD-45" target="w2PyvuTRh5ASNS8WfvtD-15">
          <mxGeometry width="50" height="50" relative="1" as="geometry">
            <mxPoint x="340" y="269" as="sourcePoint" />
            <mxPoint x="390" y="219" as="targetPoint" />
          </mxGeometry>
        </mxCell>
        <mxCell id="w2PyvuTRh5ASNS8WfvtD-48" value="" style="endArrow=classic;html=1;rounded=0;exitX=0.5;exitY=0;exitDx=0;exitDy=0;entryX=0.5;entryY=1;entryDx=0;entryDy=0;" edge="1" parent="w2PyvuTRh5ASNS8WfvtD-1" source="w2PyvuTRh5ASNS8WfvtD-46" target="w2PyvuTRh5ASNS8WfvtD-15">
          <mxGeometry width="50" height="50" relative="1" as="geometry">
            <mxPoint x="470" y="299" as="sourcePoint" />
            <mxPoint x="520" y="249" as="targetPoint" />
          </mxGeometry>
        </mxCell>
        <mxCell id="w2PyvuTRh5ASNS8WfvtD-52" value="&amp;lt;&amp;lt;extend&amp;gt;&amp;gt;" style="edgeStyle=orthogonalEdgeStyle;rounded=0;orthogonalLoop=1;jettySize=auto;html=1;exitX=1;exitY=0.5;exitDx=0;exitDy=0;entryX=0;entryY=0.5;entryDx=0;entryDy=0;dashed=1;labelPosition=center;verticalLabelPosition=top;align=center;verticalAlign=bottom;" edge="1" parent="w2PyvuTRh5ASNS8WfvtD-1" source="w2PyvuTRh5ASNS8WfvtD-49" target="w2PyvuTRh5ASNS8WfvtD-45">
          <mxGeometry relative="1" as="geometry" />
        </mxCell>
        <mxCell id="w2PyvuTRh5ASNS8WfvtD-49" value="Alert Security" style="ellipse;whiteSpace=wrap;html=1;" vertex="1" parent="w2PyvuTRh5ASNS8WfvtD-1">
          <mxGeometry x="90" y="265" width="120" height="80" as="geometry" />
        </mxCell>
        <mxCell id="w2PyvuTRh5ASNS8WfvtD-91" value="" style="rounded=0;orthogonalLoop=1;jettySize=auto;html=1;" edge="1" parent="w2PyvuTRh5ASNS8WfvtD-1" source="w2PyvuTRh5ASNS8WfvtD-55">
          <mxGeometry relative="1" as="geometry">
            <mxPoint x="470" y="344" as="targetPoint" />
          </mxGeometry>
        </mxCell>
        <mxCell id="w2PyvuTRh5ASNS8WfvtD-55" value="Open Gate" style="ellipse;whiteSpace=wrap;html=1;" vertex="1" parent="w2PyvuTRh5ASNS8WfvtD-1">
          <mxGeometry x="445" y="384.5" width="125" height="80" as="geometry" />
        </mxCell>
        <mxCell id="w2PyvuTRh5ASNS8WfvtD-88" value="&amp;lt;&amp;lt;include&amp;gt;&amp;gt;" style="rounded=0;orthogonalLoop=1;jettySize=auto;html=1;exitX=0.5;exitY=1;exitDx=0;exitDy=0;dashed=1;labelPosition=left;verticalLabelPosition=middle;align=right;verticalAlign=middle;" edge="1" parent="w2PyvuTRh5ASNS8WfvtD-1" source="w2PyvuTRh5ASNS8WfvtD-86" target="w2PyvuTRh5ASNS8WfvtD-87">
          <mxGeometry relative="1" as="geometry" />
        </mxCell>
        <mxCell id="w2PyvuTRh5ASNS8WfvtD-92" value="" style="rounded=0;orthogonalLoop=1;jettySize=auto;html=1;entryX=0.5;entryY=1;entryDx=0;entryDy=0;" edge="1" parent="w2PyvuTRh5ASNS8WfvtD-1" source="w2PyvuTRh5ASNS8WfvtD-86" target="w2PyvuTRh5ASNS8WfvtD-46">
          <mxGeometry relative="1" as="geometry" />
        </mxCell>
        <mxCell id="w2PyvuTRh5ASNS8WfvtD-86" value="Open Elevator&#39;s Door" style="ellipse;whiteSpace=wrap;html=1;" vertex="1" parent="w2PyvuTRh5ASNS8WfvtD-1">
          <mxGeometry x="320" y="393" width="125" height="77" as="geometry" />
        </mxCell>
        <mxCell id="w2PyvuTRh5ASNS8WfvtD-87" value="Direct The cabinet" style="ellipse;whiteSpace=wrap;html=1;" vertex="1" parent="w2PyvuTRh5ASNS8WfvtD-1">
          <mxGeometry x="220" y="509" width="150" height="101" as="geometry" />
        </mxCell>
        <mxCell id="w2PyvuTRh5ASNS8WfvtD-102" value="Control Weather Quality" style="ellipse;whiteSpace=wrap;html=1;" vertex="1" parent="w2PyvuTRh5ASNS8WfvtD-1">
          <mxGeometry x="195" y="638" width="200" height="130" as="geometry" />
        </mxCell>
        <mxCell id="w2PyvuTRh5ASNS8WfvtD-107" value="Raise The Temperature" style="ellipse;whiteSpace=wrap;html=1;" vertex="1" parent="w2PyvuTRh5ASNS8WfvtD-1">
          <mxGeometry x="90" y="848" width="120" height="80" as="geometry" />
        </mxCell>
        <mxCell id="w2PyvuTRh5ASNS8WfvtD-136" value="" style="edgeStyle=orthogonalEdgeStyle;rounded=0;orthogonalLoop=1;jettySize=auto;html=1;" edge="1" parent="w2PyvuTRh5ASNS8WfvtD-1" source="w2PyvuTRh5ASNS8WfvtD-108" target="w2PyvuTRh5ASNS8WfvtD-102">
          <mxGeometry relative="1" as="geometry" />
        </mxCell>
        <mxCell id="w2PyvuTRh5ASNS8WfvtD-108" value="Lower the Temperature" style="ellipse;whiteSpace=wrap;html=1;" vertex="1" parent="w2PyvuTRh5ASNS8WfvtD-1">
          <mxGeometry x="235" y="848" width="120" height="80" as="geometry" />
        </mxCell>
        <mxCell id="w2PyvuTRh5ASNS8WfvtD-138" style="rounded=0;orthogonalLoop=1;jettySize=auto;html=1;exitX=0.5;exitY=0;exitDx=0;exitDy=0;entryX=0.5;entryY=1;entryDx=0;entryDy=0;" edge="1" parent="w2PyvuTRh5ASNS8WfvtD-1" source="w2PyvuTRh5ASNS8WfvtD-109" target="w2PyvuTRh5ASNS8WfvtD-102">
          <mxGeometry relative="1" as="geometry" />
        </mxCell>
        <mxCell id="w2PyvuTRh5ASNS8WfvtD-109" value="Vent Air" style="ellipse;whiteSpace=wrap;html=1;" vertex="1" parent="w2PyvuTRh5ASNS8WfvtD-1">
          <mxGeometry x="380" y="838" width="120" height="80" as="geometry" />
        </mxCell>
        <mxCell id="w2PyvuTRh5ASNS8WfvtD-135" value="" style="endArrow=classic;html=1;rounded=0;entryX=0.5;entryY=1;entryDx=0;entryDy=0;exitX=0.5;exitY=0;exitDx=0;exitDy=0;" edge="1" parent="w2PyvuTRh5ASNS8WfvtD-1" source="w2PyvuTRh5ASNS8WfvtD-107" target="w2PyvuTRh5ASNS8WfvtD-102">
          <mxGeometry width="50" height="50" relative="1" as="geometry">
            <mxPoint x="120" y="838" as="sourcePoint" />
            <mxPoint x="170" y="788" as="targetPoint" />
          </mxGeometry>
        </mxCell>
        <mxCell id="w2PyvuTRh5ASNS8WfvtD-2" value="Visitor" style="shape=umlActor;verticalLabelPosition=bottom;verticalAlign=top;html=1;outlineConnect=0;strokeWidth=2;" vertex="1" parent="1">
          <mxGeometry x="-20" y="210" width="30" height="60" as="geometry" />
        </mxCell>
        <mxCell id="w2PyvuTRh5ASNS8WfvtD-9" value="RFID Reader" style="shape=umlActor;verticalLabelPosition=bottom;verticalAlign=top;html=1;outlineConnect=0;" vertex="1" parent="1">
          <mxGeometry x="790" y="300" width="30" height="60" as="geometry" />
        </mxCell>
        <mxCell id="w2PyvuTRh5ASNS8WfvtD-23" value="" style="endArrow=none;html=1;rounded=0;entryX=1;entryY=0.5;entryDx=0;entryDy=0;exitX=0;exitY=0.3333333333333333;exitDx=0;exitDy=0;exitPerimeter=0;" edge="1" parent="1" source="w2PyvuTRh5ASNS8WfvtD-9" target="w2PyvuTRh5ASNS8WfvtD-15">
          <mxGeometry width="50" height="50" relative="1" as="geometry">
            <mxPoint x="790" y="290" as="sourcePoint" />
            <mxPoint x="240" y="350" as="targetPoint" />
            <Array as="points" />
          </mxGeometry>
        </mxCell>
        <mxCell id="w2PyvuTRh5ASNS8WfvtD-32" value="Remote PC" style="shape=umlActor;verticalLabelPosition=bottom;verticalAlign=top;html=1;outlineConnect=0;" vertex="1" parent="1">
          <mxGeometry x="790" y="170" width="30" height="60" as="geometry" />
        </mxCell>
        <mxCell id="w2PyvuTRh5ASNS8WfvtD-41" value="" style="endArrow=none;html=1;rounded=0;exitX=1;exitY=0.3333333333333333;exitDx=0;exitDy=0;exitPerimeter=0;entryX=0;entryY=0.5;entryDx=0;entryDy=0;" edge="1" parent="1" source="w2PyvuTRh5ASNS8WfvtD-2" target="w2PyvuTRh5ASNS8WfvtD-14">
          <mxGeometry width="50" height="50" relative="1" as="geometry">
            <mxPoint x="-150" y="240" as="sourcePoint" />
            <mxPoint x="-100" y="190" as="targetPoint" />
          </mxGeometry>
        </mxCell>
        <mxCell id="w2PyvuTRh5ASNS8WfvtD-43" value="" style="endArrow=none;html=1;rounded=0;exitX=1;exitY=0.5;exitDx=0;exitDy=0;entryX=0;entryY=0.3333333333333333;entryDx=0;entryDy=0;entryPerimeter=0;" edge="1" parent="1" source="w2PyvuTRh5ASNS8WfvtD-35" target="w2PyvuTRh5ASNS8WfvtD-32">
          <mxGeometry width="50" height="50" relative="1" as="geometry">
            <mxPoint x="640" y="200" as="sourcePoint" />
            <mxPoint x="690" y="150" as="targetPoint" />
          </mxGeometry>
        </mxCell>
        <mxCell id="w2PyvuTRh5ASNS8WfvtD-56" value="Gate&#39;s&lt;br&gt;&amp;nbsp;Door&#39; Actuator" style="shape=umlActor;verticalLabelPosition=bottom;verticalAlign=top;html=1;outlineConnect=0;" vertex="1" parent="1">
          <mxGeometry x="790" y="460" width="30" height="60" as="geometry" />
        </mxCell>
        <mxCell id="w2PyvuTRh5ASNS8WfvtD-60" value="" style="endArrow=none;html=1;rounded=0;exitX=1;exitY=0.5;exitDx=0;exitDy=0;entryX=0;entryY=0.3333333333333333;entryDx=0;entryDy=0;entryPerimeter=0;" edge="1" parent="1" source="w2PyvuTRh5ASNS8WfvtD-55" target="w2PyvuTRh5ASNS8WfvtD-56">
          <mxGeometry width="50" height="50" relative="1" as="geometry">
            <mxPoint x="650" y="410" as="sourcePoint" />
            <mxPoint x="700" y="360" as="targetPoint" />
          </mxGeometry>
        </mxCell>
        <mxCell id="w2PyvuTRh5ASNS8WfvtD-61" value="Elevator&#39;s&lt;br&gt;&amp;nbsp;Door Actuator" style="shape=umlActor;verticalLabelPosition=bottom;verticalAlign=top;html=1;outlineConnect=0;" vertex="1" parent="1">
          <mxGeometry x="-20" y="530" width="30" height="60" as="geometry" />
        </mxCell>
        <mxCell id="w2PyvuTRh5ASNS8WfvtD-67" value="" style="endArrow=none;html=1;rounded=0;entryX=0;entryY=0.3333333333333333;entryDx=0;entryDy=0;entryPerimeter=0;" edge="1" parent="1" source="w2PyvuTRh5ASNS8WfvtD-86" target="w2PyvuTRh5ASNS8WfvtD-61">
          <mxGeometry width="50" height="50" relative="1" as="geometry">
            <mxPoint x="680" y="510" as="sourcePoint" />
            <mxPoint x="730" y="460" as="targetPoint" />
          </mxGeometry>
        </mxCell>
        <mxCell id="w2PyvuTRh5ASNS8WfvtD-94" value="Alarm" style="shape=umlActor;verticalLabelPosition=bottom;verticalAlign=top;html=1;outlineConnect=0;" vertex="1" parent="1">
          <mxGeometry x="-20" y="396" width="30" height="60" as="geometry" />
        </mxCell>
        <mxCell id="w2PyvuTRh5ASNS8WfvtD-98" value="" style="endArrow=none;html=1;rounded=0;exitX=1;exitY=0.3333333333333333;exitDx=0;exitDy=0;exitPerimeter=0;entryX=0;entryY=0.5;entryDx=0;entryDy=0;" edge="1" parent="1" source="w2PyvuTRh5ASNS8WfvtD-94" target="w2PyvuTRh5ASNS8WfvtD-49">
          <mxGeometry width="50" height="50" relative="1" as="geometry">
            <mxPoint x="60" y="440" as="sourcePoint" />
            <mxPoint x="110" y="390" as="targetPoint" />
          </mxGeometry>
        </mxCell>
        <mxCell id="w2PyvuTRh5ASNS8WfvtD-100" value="Elevator&amp;nbsp;&lt;br&gt;Control Unit" style="shape=umlActor;verticalLabelPosition=bottom;verticalAlign=top;html=1;outlineConnect=0;" vertex="1" parent="1">
          <mxGeometry x="-20" y="660" width="30" height="60" as="geometry" />
        </mxCell>
        <mxCell id="w2PyvuTRh5ASNS8WfvtD-101" value="" style="endArrow=none;html=1;rounded=0;exitX=1;exitY=0.3333333333333333;exitDx=0;exitDy=0;exitPerimeter=0;entryX=0;entryY=0.5;entryDx=0;entryDy=0;" edge="1" parent="1" source="w2PyvuTRh5ASNS8WfvtD-100" target="w2PyvuTRh5ASNS8WfvtD-87">
          <mxGeometry width="50" height="50" relative="1" as="geometry">
            <mxPoint x="130" y="720" as="sourcePoint" />
            <mxPoint x="180" y="670" as="targetPoint" />
          </mxGeometry>
        </mxCell>
        <mxCell id="w2PyvuTRh5ASNS8WfvtD-103" value="HVAC&amp;nbsp;&lt;br&gt;System" style="shape=umlActor;verticalLabelPosition=bottom;verticalAlign=top;html=1;outlineConnect=0;" vertex="1" parent="1">
          <mxGeometry x="-30" y="800" width="30" height="60" as="geometry" />
        </mxCell>
        <mxCell id="w2PyvuTRh5ASNS8WfvtD-106" value="" style="endArrow=none;html=1;rounded=0;exitX=1;exitY=0.3333333333333333;exitDx=0;exitDy=0;exitPerimeter=0;entryX=0;entryY=0.5;entryDx=0;entryDy=0;" edge="1" parent="1" source="w2PyvuTRh5ASNS8WfvtD-103" target="w2PyvuTRh5ASNS8WfvtD-102">
          <mxGeometry width="50" height="50" relative="1" as="geometry">
            <mxPoint x="220" y="890" as="sourcePoint" />
            <mxPoint x="270" y="840" as="targetPoint" />
          </mxGeometry>
        </mxCell>
      </root>
    </mxGraphModel>
  </diagram>
</mxfile>
